<svg width="300" height="300" viewBox="0 0 300 300" fill="none" xmlns="http://www.w3.org/2000/svg">
<path d="M297.414 169.416L160.054 160.146L285.858 210.844C291.584 197.897 295.539 183.984 297.414 169.416Z" fill="url(#paint0_linear_1_70)"/>
<path d="M269.205 239.454C241.988 276.198 198.425 300 149.327 300C66.8558 300 0 232.843 0 150C0 67.1573 66.8558 0 149.327 0C198.516 0 242.151 23.8911 269.357 60.7518L144.608 127.827L224.886 45H180.387L125.733 121.203V45H89.596V255H125.733V178.92L180.387 255H224.886L146.693 174.777L269.205 239.454Z" fill="url(#paint1_linear_1_70)"/>
<path d="M285.858 89.1559L160.932 139.494L297.413 130.581C295.539 116.014 291.584 102.102 285.858 89.1559Z" fill="url(#paint2_linear_1_70)"/>
<defs>
<linearGradient id="paint0_linear_1_70" x1="148.707" y1="150" x2="298.701" y2="298.701" gradientUnits="userSpaceOnUse">
<stop stop-color="#FF5500"/>
<stop offset="1" stop-color="#BBFF00"/>
</linearGradient>
<linearGradient id="paint1_linear_1_70" x1="148.707" y1="150" x2="298.701" y2="298.701" gradientUnits="userSpaceOnUse">
<stop stop-color="#FF5500"/>
<stop offset="1" stop-color="#BBFF00"/>
</linearGradient>
<linearGradient id="paint2_linear_1_70" x1="148.707" y1="150" x2="298.701" y2="298.701" gradientUnits="userSpaceOnUse">
<stop stop-color="#FF5500"/>
<stop offset="1" stop-color="#BBFF00"/>
</linearGradient>
</defs>
</svg>
